<?xml version="1.0" encoding="UTF-8" standalone="no"?>
<!-- Created with Inkscape (http://www.inkscape.org/) -->

<svg
   xmlns:dc="http://purl.org/dc/elements/1.1/"
   xmlns:cc="http://creativecommons.org/ns#"
   xmlns:rdf="http://www.w3.org/1999/02/22-rdf-syntax-ns#"
   xmlns:svg="http://www.w3.org/2000/svg"
   xmlns="http://www.w3.org/2000/svg"
   xmlns:sodipodi="http://sodipodi.sourceforge.net/DTD/sodipodi-0.dtd"
   xmlns:inkscape="http://www.inkscape.org/namespaces/inkscape"
   version="1.1"
   id="svg2"
   xml:space="preserve"
   width="1200"
   height="450"
   viewBox="0 0 1200 450.00001"
   sodipodi:docname="opsta_logo_slogan.svg"
   inkscape:version="0.92.5 (2060ec1f9f, 2020-04-08)"><metadata
     id="metadata8"><rdf:RDF><cc:Work
         rdf:about=""><dc:format>image/svg+xml</dc:format><dc:type
           rdf:resource="http://purl.org/dc/dcmitype/StillImage" /><dc:title></dc:title></cc:Work></rdf:RDF></metadata><defs
     id="defs6"><clipPath
       clipPathUnits="userSpaceOnUse"
       id="clipPath18"><path
         d="M 0,1024 H 1024 V 0 H 0 Z"
         id="path16"
         inkscape:connector-curvature="0" /></clipPath></defs><sodipodi:namedview
     pagecolor="#ffffff"
     bordercolor="#666666"
     borderopacity="1"
     objecttolerance="10"
     gridtolerance="10"
     guidetolerance="10"
     inkscape:pageopacity="0"
     inkscape:pageshadow="2"
     inkscape:window-width="2488"
     inkscape:window-height="1376"
     id="namedview4"
     showgrid="false"
     inkscape:zoom="0.97779615"
     inkscape:cx="870.06253"
     inkscape:cy="38.497358"
     inkscape:window-x="1992"
     inkscape:window-y="27"
     inkscape:window-maximized="1"
     inkscape:current-layer="g10" /><g
     id="g10"
     inkscape:groupmode="layer"
     inkscape:label="opsta_final_v2"
     transform="matrix(1.3333333,0,0,-1.3333333,0,450.00005)"><g
       id="g12"
       transform="translate(-39.817877,-311.48168)"><g
         id="g14"
         clip-path="url(#clipPath18)"><g
           id="g20"
           transform="translate(442.1817,481.7912)"><path
             d="m 0,0 c -0.854,-4.644 -2.549,-8.969 -5.098,-12.986 -2.548,-4.016 -6.211,-7.362 -10.992,-10.041 -4.78,-2.676 -11.101,-4.014 -18.959,-4.014 -7.858,0 -14.175,1.338 -18.956,4.014 -4.78,2.679 -8.5,6.025 -11.15,10.041 -2.659,4.017 -4.411,8.342 -5.26,12.986 -0.85,4.64 -1.273,8.923 -1.273,12.852 0,4.819 0.37,9.591 1.114,14.323 0.744,4.728 2.338,9.013 4.781,12.852 2.439,3.837 6.101,6.915 10.992,9.238 4.882,2.317 11.471,3.48 19.752,3.48 7.858,0 14.179,-1.338 18.959,-4.017 4.781,-2.677 8.444,-6.024 10.992,-10.04 C -2.549,34.673 -0.854,30.342 0,25.704 0.846,21.059 1.272,16.775 1.272,12.852 1.272,8.923 0.846,4.64 0,0 m 37.118,37.216 c -2.231,6.961 -5.097,12.986 -8.601,18.073 -3.505,5.086 -7.545,9.324 -12.11,12.718 -4.569,3.388 -9.187,6.156 -13.858,8.299 -11.049,4.996 -23.578,7.673 -37.598,8.032 -13.378,0 -24.744,-1.652 -34.09,-4.953 -9.35,-3.305 -17.045,-8.033 -23.098,-14.191 -6.057,-6.157 -10.467,-13.655 -13.223,-22.49 -2.765,-8.836 -4.143,-18.874 -4.143,-30.121 v -112.45 h 37.915 v 60.552 c 2.051,-2.402 4.274,-4.484 6.691,-6.202 5.521,-3.927 10.935,-6.784 16.249,-8.567 6.158,-1.961 12.532,-3.12 19.118,-3.479 13.166,0.178 24.849,2.676 35.045,7.495 4.463,2.143 8.764,4.862 12.906,8.167 4.143,3.301 7.854,7.45 11.151,12.45 3.288,4.996 5.943,10.977 7.963,17.939 2.017,6.961 3.029,15.081 3.029,24.364 0,9.278 -1.114,17.402 -3.346,24.364"
             style="fill:#323c49;fill-opacity:1;fill-rule:nonzero;stroke:none"
             id="path22"
             inkscape:connector-curvature="0" /></g><g
           id="g24"
           transform="translate(635.5231,484.2505)"><path
             d="m 0,0 c -2.744,4.425 -6.313,8.074 -10.705,10.941 -4.399,2.866 -9.325,5.081 -14.795,6.648 -5.466,1.56 -10.893,2.683 -16.269,3.368 -5.38,0.683 -40.088,3.824 -44.684,5.817 -4.597,1.99 -6.545,4.885 -6.821,8.733 -0.635,8.861 8.771,10.983 13.161,11.264 7.231,0.463 15.562,0.328 15.562,0.328 h 61.152 l -0.503,31.02 c -30.888,-0.161 -75.92,0.577 -89.316,-1.813 -7.41,-1.322 -13.855,-4.22 -19.567,-7.659 -5.715,-3.445 -10.33,-7.909 -13.854,-13.399 -3.52,-5.49 -5.324,-11.926 -5.404,-19.304 -0.071,-6.679 2.043,-12.222 5.008,-17.46 3.14,-5.547 7.83,-10.528 13.377,-13.848 5.543,-3.324 11.825,-5.485 18.734,-7.156 6.908,-1.668 18.845,-3.484 25.753,-4.052 10.457,-0.86 19.63,-1.292 26.091,-3.803 1.707,-0.664 6.757,-3.835 6.757,-8.46 0,-4.625 -2.063,-7.379 -6.291,-8.901 -4.957,-1.786 -14.92,-1.747 -14.92,-1.747 h -68.877 v -31.594 l 60.615,-0.028 c 0,0 16.027,0.443 20.989,1.049 8.162,0.997 15.856,2.698 23.008,5.771 7.151,3.072 13.213,7.607 18.187,13.607 4.969,5.998 7.509,14.091 7.619,24.283 C 4.077,-9.897 2.74,-4.431 0,0"
             style="fill:#323c49;fill-opacity:1;fill-rule:nonzero;stroke:none"
             id="path26"
             inkscape:connector-curvature="0" /></g><g
           id="g28"
           transform="translate(699.8315,530.7877)"><path
             d="m 0,0 v -56.945 c 0,-7.718 4.896,-14.541 20.073,-14.541 h 24.212 v -32.397 H 5.415 c -8.285,0.711 -15.72,2.677 -22.301,5.89 -5.525,2.677 -10.57,6.649 -15.135,11.915 -4.569,5.262 -6.849,12.537 -6.849,21.821 V 68.273 H 0 V 31.86 H 36.639 V 0 Z"
             style="fill:#323c49;fill-opacity:1;fill-rule:nonzero;stroke:none"
             id="path30"
             inkscape:connector-curvature="0" /></g><g
           id="g32"
           transform="translate(867.5772,468.8054)"><path
             d="m 0,0 c -2.659,-4.016 -6.374,-7.362 -11.151,-10.041 -4.78,-2.677 -11.101,-4.014 -18.959,-4.014 -7.862,0 -14.179,1.337 -18.956,4.014 -4.78,2.679 -8.443,6.025 -10.992,10.041 -2.548,4.016 -4.252,8.342 -5.097,12.986 -0.854,4.64 -1.277,8.923 -1.277,12.852 0,3.922 0.423,8.207 1.277,12.851 0.845,4.639 2.549,8.97 5.097,12.984 2.549,4.017 6.212,7.364 10.992,10.041 4.777,2.679 11.094,4.016 18.956,4.016 8.284,0 14.866,-1.162 19.756,-3.479 4.882,-2.324 8.545,-5.401 10.992,-9.238 2.439,-3.84 4.033,-8.124 4.777,-12.852 0.743,-4.732 1.117,-9.504 1.117,-14.323 0,-3.929 -0.43,-8.212 -1.276,-12.852 C 4.406,8.342 2.654,4.016 0,0 m 40.305,55.69 c -2.764,8.835 -7.171,16.333 -13.223,22.49 -6.053,6.158 -13.757,10.886 -23.098,14.191 -9.35,3.301 -20.712,4.953 -34.094,4.953 -14.232,-0.36 -26.874,-3.036 -37.915,-8.032 -4.675,-2.143 -9.293,-4.911 -13.858,-8.299 -4.569,-3.395 -8.602,-7.633 -12.11,-12.718 -3.504,-5.087 -6.321,-11.112 -8.443,-18.073 -2.122,-6.962 -3.183,-15.086 -3.183,-24.364 0,-9.283 1.004,-17.403 3.024,-24.364 2.017,-6.962 4.671,-12.944 7.968,-17.94 3.289,-5 7.008,-9.148 11.15,-12.449 4.143,-3.305 8.444,-6.024 12.903,-8.167 10.195,-4.819 21.874,-7.317 35.049,-7.496 6.581,0.36 12.952,1.519 19.114,3.48 5.309,1.783 10.724,4.64 16.252,8.567 2.418,1.719 4.64,3.802 6.691,6.206 v -15.576 h 37.911 v 67.47 c 0,11.246 -1.382,21.285 -4.138,30.121"
             style="fill:#323c49;fill-opacity:1;fill-rule:nonzero;stroke:none"
             id="path34"
             inkscape:connector-curvature="0" /></g><g
           id="g36"
           transform="translate(156.716,432.6588)"><path
             d="M 0,0 C -2.133,1.093 -4.222,2.259 -6.271,3.487 -4.222,2.259 -2.133,1.093 0,0"
             style="fill:#ffffff;fill-opacity:1;fill-rule:nonzero;stroke:none"
             id="path38"
             inkscape:connector-curvature="0" /></g><g
           id="g40"
           transform="translate(205.9812,420.8202)"><path
             d="M 0,0 V 0 C -5.912,0 -11.712,0.481 -17.367,1.394 -11.712,0.481 -5.912,0 0,0"
             style="fill:#ffffff;fill-opacity:1;fill-rule:nonzero;stroke:none"
             id="path42"
             inkscape:connector-curvature="0" /></g><g
           id="g44"
           transform="translate(288.0681,458.5393)"><path
             d="M 0,0 C 0.69,0.803 1.368,1.615 2.035,2.438 1.368,1.615 0.69,0.802 0,0"
             style="fill:#323c49;fill-opacity:1;fill-rule:nonzero;stroke:none"
             id="path46"
             inkscape:connector-curvature="0" /></g><g
           id="g48"
           transform="translate(307.8109,492.3578)"><path
             d="M 0,0 C -1.364,-3.787 -2.935,-7.474 -4.696,-11.052 -2.935,-7.474 -1.364,-3.787 0,0"
             style="fill:#323c49;fill-opacity:1;fill-rule:nonzero;stroke:none"
             id="path50"
             inkscape:connector-curvature="0" /></g><g
           id="g52"
           transform="translate(282.0409,452.0582)"><path
             d="M 0,0 C -0.912,-0.901 -1.844,-1.783 -2.787,-2.651 -1.844,-1.783 -0.912,-0.901 0,0"
             style="fill:#323c49;fill-opacity:1;fill-rule:nonzero;stroke:none"
             id="path54"
             inkscape:connector-curvature="0" /></g><g
           id="g56"
           transform="translate(314.1969,529.0359)"><path
             d="M 0,0 V 0 C 0,-9.435 -1.221,-18.582 -3.49,-27.307 -1.221,-18.582 0,-9.435 0,0"
             style="fill:#323c49;fill-opacity:1;fill-rule:nonzero;stroke:none"
             id="path58"
             inkscape:connector-curvature="0" /></g><g
           id="g60"
           transform="translate(172.1598,426.2182)"><path
             d="M 0,0 C -4.007,1.317 -7.912,2.859 -11.698,4.614 -7.913,2.859 -4.007,1.317 0,0"
             style="fill:#ffffff;fill-opacity:1;fill-rule:nonzero;stroke:none"
             id="path62"
             inkscape:connector-curvature="0" /></g><g
           id="g64"
           transform="translate(302.3439,578.3285)"><path
             d="M 0,0 -0.017,0.011 C 0.43,-0.861 0.873,-1.736 1.297,-2.622 0.875,-1.742 0.444,-0.867 0,0"
             style="fill:#323c49;fill-opacity:1;fill-rule:nonzero;stroke:none"
             id="path66"
             inkscape:connector-curvature="0" /></g><g
           id="g68"
           transform="translate(237.6843,425.5382)"><path
             d="M 0,0 C -2.228,-0.682 -4.487,-1.293 -6.774,-1.833 -4.487,-1.293 -2.228,-0.682 0,0"
             style="fill:#ffffff;fill-opacity:1;fill-rule:nonzero;stroke:none"
             id="path70"
             inkscape:connector-curvature="0" /></g><g
           id="g72"
           transform="translate(253.782,431.9227)"><path
             d="M 0,0 C -5.148,-2.539 -10.527,-4.68 -16.098,-6.385 -10.527,-4.68 -5.148,-2.539 0,0"
             style="fill:#ffffff;fill-opacity:1;fill-rule:nonzero;stroke:none"
             id="path74"
             inkscape:connector-curvature="0" /></g><g
           id="g76"
           transform="translate(279.2537,449.4068)"><path
             d="M 0,0 C -1.624,-1.495 -3.29,-2.944 -5.003,-4.339 -3.29,-2.944 -1.624,-1.495 0,0"
             style="fill:#323c49;fill-opacity:1;fill-rule:nonzero;stroke:none"
             id="path78"
             inkscape:connector-curvature="0" /></g><g
           id="g80"
           transform="translate(274.2511,445.0681)"><path
             d="M 0,0 C -1.806,-1.47 -3.659,-2.883 -5.559,-4.235 -3.659,-2.883 -1.806,-1.47 0,0"
             style="fill:#323c49;fill-opacity:1;fill-rule:nonzero;stroke:none"
             id="path82"
             inkscape:connector-curvature="0" /></g><g
           id="g84"
           transform="translate(288.0681,458.5393)"><path
             d="M 0,0 C -1.924,-2.239 -3.928,-4.407 -6.027,-6.481 -3.928,-4.407 -1.924,-2.239 0,0"
             style="fill:#323c49;fill-opacity:1;fill-rule:nonzero;stroke:none"
             id="path86"
             inkscape:connector-curvature="0" /></g><g
           id="g88"
           transform="translate(303.1147,481.3058)"><path
             d="M 0,0 C -3.582,-7.276 -7.956,-14.088 -13.012,-20.329 -7.957,-14.088 -3.582,-7.276 0,0"
             style="fill:#323c49;fill-opacity:1;fill-rule:nonzero;stroke:none"
             id="path90"
             inkscape:connector-curvature="0" /></g><g
           id="g92"
           transform="translate(310.7067,501.7291)"><path
             d="M 0,0 C -0.828,-3.183 -1.793,-6.309 -2.896,-9.371 -1.793,-6.309 -0.828,-3.183 0,0"
             style="fill:#323c49;fill-opacity:1;fill-rule:nonzero;stroke:none"
             id="path94"
             inkscape:connector-curvature="0" /></g><g
           id="g96"
           transform="translate(103.1636,495.2144)"><path
             d="M 0,0 C -1.417,4.31 -2.569,8.74 -3.441,13.27 -2.569,8.74 -1.417,4.31 0,0"
             style="fill:#ffffff;fill-opacity:1;fill-rule:nonzero;stroke:none"
             id="path98"
             inkscape:connector-curvature="0" /></g><g
           id="g100"
           transform="translate(292.6518,593.8292)"><path
             d="m 0,0 c -11.419,15.251 -26.849,27.389 -44.387,34.842 -19.271,8.189 -41.026,10.665 -61.632,6.853 -12.333,-2.281 -24.158,-6.677 -34.935,-12.917 l 34.44,-25.7 c 14.71,4.29 30.652,3.75 45.015,-1.709 12.562,-4.774 23.637,-13.176 31.66,-23.953 8.19,-11.001 13.037,-24.31 13.84,-38.002 0.949,-16.179 -3.727,-32.412 -13.213,-45.561 -2.23,-3.091 -4.71,-6.002 -7.406,-8.696 12.815,12.806 -12.806,-12.816 0,0 -11.403,-11.413 -26.6,-18.694 -42.652,-20.363 -14.271,-1.483 -28.852,1.411 -41.431,8.324 -11.75,6.458 -21.561,16.269 -28.019,28.019 -4.039,7.348 -6.695,15.382 -7.919,23.637 l -36.889,27.528 c -2.891,-18.279 -1.093,-37.262 5.342,-54.649 7.406,-20.014 20.815,-37.61 38.091,-50.128 20.494,-14.849 45.918,-22.044 71.157,-20.262 24.863,1.755 48.552,12.271 66.666,29.364 17.674,16.677 29.338,39.302 32.746,63.352 0.858,6.061 1.197,12.191 1.025,18.311 C 20.889,-39.511 13.307,-17.773 0,0"
             style="fill:#323c49;fill-opacity:1;fill-rule:nonzero;stroke:none"
             id="path102"
             inkscape:connector-curvature="0" /></g><g
           id="g104"
           transform="translate(194.7445,523.3605)"><path
             d="m 0,0 c -1.21,0.025 -2.334,0.393 -3.251,1.063 l -76.106,56.452 c -1.434,1.048 -2.265,2.76 -2.344,4.825 -0.082,2.14 0.648,4.38 2.056,6.306 1.875,2.561 4.68,4.153 7.324,4.153 l 0.135,-0.002 c 1.208,-0.026 2.333,-0.394 3.251,-1.065 L 7.173,15.282 C 10.202,13.065 10.329,8.074 7.46,4.15 5.585,1.59 2.778,-0.002 0.136,-0.002 Z"
             style="fill:#f17273;fill-opacity:1;fill-rule:nonzero;stroke:none"
             id="path106"
             inkscape:connector-curvature="0" /></g><g
           id="g108"
           transform="translate(115.9008,615.4738)"><path
             d="m 0,0 c -1.469,1.028 -2.332,2.722 -2.453,4.784 -0.126,2.139 0.558,4.393 1.927,6.346 1.859,2.655 4.683,4.305 7.371,4.305 1.209,0 2.341,-0.344 3.271,-0.996 l 51.709,-38.417 -1.655,-0.857 c -4.795,-2.483 -9.332,-5.508 -13.487,-8.99 l -0.669,-0.561 z"
             style="fill:#adca00;fill-opacity:1;fill-rule:nonzero;stroke:none"
             id="path110"
             inkscape:connector-curvature="0" /></g><g
           id="g112"
           transform="translate(66.5707,582.4904)"><path
             d="m 0,0 c -1.497,1.104 -2.354,2.968 -2.356,5.114 -0.003,2.053 0.743,4.195 2.099,6.032 1.876,2.541 4.679,4.12 7.313,4.12 1.328,-0.017 2.477,-0.39 3.411,-1.079 l 65.134,-48.789 -0.254,-0.782 c -1.718,-5.287 -2.835,-10.79 -3.321,-16.354 l -0.174,-2.004 z"
             style="fill:#00adf2;fill-opacity:1;fill-rule:nonzero;stroke:none"
             id="path114"
             inkscape:connector-curvature="0" /></g><g
           id="g116"
           transform="translate(552.7462,327.8501)"><path
             d="m 0,0 h -5.002 l -8.783,29.149 c -0.417,1.291 -0.884,2.918 -1.4,4.884 -0.516,1.965 -0.785,3.146 -0.804,3.543 -0.437,-2.62 -1.131,-5.489 -2.084,-8.604 L -26.589,0 h -5.002 l -11.583,43.531 h 5.36 l 6.878,-26.886 c 0.953,-3.772 1.647,-7.187 2.084,-10.244 0.537,3.633 1.33,7.186 2.382,10.661 l 7.801,26.469 h 5.359 l 8.189,-26.708 c 0.953,-3.077 1.757,-6.551 2.412,-10.422 0.377,2.819 1.091,6.253 2.144,10.303 l 6.848,26.827 h 5.36 z"
             style="fill:#323c49;fill-opacity:1;fill-rule:nonzero;stroke:none"
             id="path118"
             inkscape:connector-curvature="0" /></g><g
           id="g120"
           transform="translate(582.9092,356.9409)"><path
             d="m 0,0 c -2.62,0 -4.71,-0.854 -6.268,-2.562 -1.558,-1.707 -2.476,-4.069 -2.753,-7.085 h 17.06 c 0,3.116 -0.695,5.502 -2.084,7.161 C 4.565,-0.829 2.58,0 0,0 m 1.34,-29.687 c -4.823,0 -8.63,1.469 -11.419,4.408 -2.789,2.937 -4.184,7.016 -4.184,12.237 0,5.26 1.296,9.438 3.886,12.535 2.591,3.097 6.069,4.646 10.437,4.646 4.088,0 7.324,-1.346 9.707,-4.035 2.381,-2.69 3.572,-6.238 3.572,-10.645 v -3.126 h -22.48 c 0.099,-3.831 1.067,-6.739 2.903,-8.725 1.836,-1.985 4.422,-2.977 7.757,-2.977 3.513,0 6.987,0.734 10.42,2.203 v -4.406 C 10.192,-28.327 8.54,-28.867 6.982,-29.195 5.424,-29.522 3.543,-29.687 1.34,-29.687"
             style="fill:#323c49;fill-opacity:1;fill-rule:nonzero;stroke:none"
             id="path122"
             inkscape:connector-curvature="0" /></g><g
           id="g124"
           transform="translate(634.9854,356.8814)"><path
             d="m 0,0 c -3.375,0 -5.806,-0.968 -7.295,-2.903 -1.488,-1.936 -2.232,-5.197 -2.232,-9.782 0,-4.586 0.763,-7.866 2.292,-9.84 1.528,-1.976 3.979,-2.963 7.354,-2.963 3.037,0 5.3,1.106 6.789,3.32 1.488,2.213 2.234,5.394 2.234,9.543 0,4.247 -0.746,7.414 -2.234,9.498 C 5.419,-1.043 3.116,0 0,0 m 0.715,4.139 c 4.288,0 7.617,-1.465 9.989,-4.393 2.372,-2.928 3.559,-7.071 3.559,-12.431 0,-5.359 -1.197,-9.523 -3.588,-12.491 -2.393,-2.968 -5.712,-4.451 -9.96,-4.451 -2.124,0 -4.065,0.393 -5.821,1.177 -1.757,0.783 -3.231,1.989 -4.421,3.617 h -0.358 l -1.043,-4.198 h -3.543 v 46.33 h 4.944 V 6.044 c 0,-2.522 -0.08,-4.784 -0.239,-6.789 h 0.239 c 2.301,3.256 5.716,4.884 10.242,4.884"
             style="fill:#323c49;fill-opacity:1;fill-rule:nonzero;stroke:none"
             id="path126"
             inkscape:connector-curvature="0" /></g><g
           id="g128"
           transform="translate(662.5284,360.4839)"><path
             d="m 0,0 v -21.17 c 0,-2.661 0.604,-4.645 1.815,-5.955 1.211,-1.311 3.107,-1.966 5.688,-1.966 3.414,0 5.91,0.933 7.488,2.799 1.578,1.866 2.367,4.913 2.367,9.142 V 0 h 4.943 v -32.634 h -4.079 l -0.714,4.377 h -0.269 c -1.011,-1.607 -2.417,-2.839 -4.213,-3.692 -1.797,-0.853 -3.846,-1.28 -6.148,-1.28 -3.971,0 -6.943,0.942 -8.918,2.829 -1.976,1.885 -2.963,4.902 -2.963,9.051 V 0 Z"
             style="fill:#323c49;fill-opacity:1;fill-rule:nonzero;stroke:none"
             id="path130"
             inkscape:connector-curvature="0" /></g><path
           d="m 700.253,327.85 h -4.943 v 32.634 h 4.943 z m -5.36,41.477 c 0,1.132 0.278,1.96 0.834,2.486 0.555,0.525 1.251,0.789 2.084,0.789 0.794,0 1.478,-0.267 2.054,-0.804 0.575,-0.536 0.864,-1.36 0.864,-2.471 0,-1.112 -0.289,-1.941 -0.864,-2.487 -0.576,-0.546 -1.26,-0.818 -2.054,-0.818 -0.833,0 -1.529,0.272 -2.084,0.818 -0.556,0.546 -0.834,1.375 -0.834,2.487"
           style="fill:#323c49;fill-opacity:1;fill-rule:nonzero;stroke:none"
           id="path132"
           inkscape:connector-curvature="0" /><path
           d="m 715.677,327.85 h -4.943 v 46.33 h 4.943 z"
           style="fill:#323c49;fill-opacity:1;fill-rule:nonzero;stroke:none"
           id="path134"
           inkscape:connector-curvature="0" /><g
           id="g136"
           transform="translate(738.4844,331.3931)"><path
             d="m 0,0 c 3.374,0 5.821,0.918 7.34,2.755 1.518,1.835 2.277,4.798 2.277,8.888 v 1.042 c 0,4.625 -0.769,7.924 -2.307,9.9 -1.539,1.975 -3.996,2.963 -7.37,2.963 -2.898,0 -5.116,-1.127 -6.654,-3.38 -1.539,-2.253 -2.307,-5.434 -2.307,-9.543 0,-4.169 0.763,-7.315 2.292,-9.438 C -5.201,1.062 -2.958,0 0,0 M 9.886,0.834 H 9.617 C 7.334,-2.481 3.92,-4.139 -0.625,-4.139 c -4.269,0 -7.588,1.459 -9.96,4.377 -2.372,2.918 -3.559,7.067 -3.559,12.447 0,5.378 1.192,9.557 3.574,12.535 2.382,2.977 5.697,4.467 9.945,4.467 4.426,0 7.82,-1.609 10.183,-4.825 h 0.387 l -0.209,2.353 -0.119,2.293 v 13.279 h 4.943 v -46.33 h -4.02 z"
             style="fill:#323c49;fill-opacity:1;fill-rule:nonzero;stroke:none"
             id="path138"
             inkscape:connector-curvature="0" /></g><g
           id="g140"
           transform="translate(800.4161,336.7525)"><path
             d="m 0,0 c 0,-3.037 -1.131,-5.379 -3.394,-7.026 -2.263,-1.649 -5.439,-2.472 -9.528,-2.472 -4.328,0 -7.702,0.685 -10.124,2.055 v 4.585 c 1.568,-0.794 3.251,-1.419 5.047,-1.875 1.797,-0.457 3.528,-0.686 5.196,-0.686 2.58,0 4.566,0.412 5.955,1.236 1.389,0.824 2.084,2.079 2.084,3.767 0,1.27 -0.55,2.356 -1.652,3.26 -1.102,0.903 -3.251,1.969 -6.446,3.201 -3.037,1.131 -5.197,2.118 -6.477,2.963 -1.28,0.843 -2.232,1.801 -2.858,2.873 -0.625,1.071 -0.938,2.352 -0.938,3.841 0,2.66 1.082,4.758 3.245,6.298 2.164,1.538 5.132,2.307 8.904,2.307 3.513,0 6.947,-0.715 10.301,-2.144 l -1.756,-4.02 c -3.276,1.35 -6.244,2.025 -8.903,2.025 -2.343,0 -4.109,-0.368 -5.3,-1.102 -1.191,-0.734 -1.787,-1.747 -1.787,-3.037 0,-0.873 0.224,-1.617 0.67,-2.233 0.448,-0.616 1.166,-1.201 2.159,-1.756 0.993,-0.556 2.898,-1.361 5.717,-2.413 C -6.014,8.238 -3.399,6.819 -2.039,5.39 -0.68,3.961 0,2.164 0,0"
             style="fill:#323c49;fill-opacity:1;fill-rule:nonzero;stroke:none"
             id="path142"
             inkscape:connector-curvature="0" /></g><g
           id="g144"
           transform="translate(821.4971,327.2544)"><path
             d="m 0,0 c -4.725,0 -8.382,1.454 -10.973,4.362 -2.59,2.908 -3.885,7.022 -3.885,12.342 0,5.459 1.315,9.677 3.945,12.654 2.63,2.978 6.377,4.467 11.24,4.467 1.569,0 3.137,-0.169 4.704,-0.507 1.569,-0.338 2.8,-0.734 3.693,-1.19 L 7.205,27.93 c -1.092,0.435 -2.282,0.799 -3.573,1.086 -1.29,0.288 -2.432,0.432 -3.424,0.432 -6.63,0 -9.944,-4.228 -9.944,-12.684 0,-4.01 0.808,-7.087 2.425,-9.231 1.619,-2.143 4.015,-3.216 7.192,-3.216 2.719,0 5.508,0.586 8.366,1.757 V 1.697 C 6.063,0.566 3.314,0 0,0"
             style="fill:#323c49;fill-opacity:1;fill-rule:nonzero;stroke:none"
             id="path146"
             inkscape:connector-curvature="0" /></g><g
           id="g148"
           transform="translate(846.3897,331.3335)"><path
             d="m 0,0 c 3.076,0 5.493,0.844 7.25,2.531 1.757,1.687 2.635,4.05 2.635,7.087 v 2.947 L 4.942,12.357 c -3.93,-0.139 -6.763,-0.75 -8.501,-1.832 -1.737,-1.082 -2.605,-2.763 -2.605,-5.046 0,-1.787 0.541,-3.146 1.623,-4.08 C -3.459,0.467 -1.946,0 0,0 M 11.165,-3.483 10.183,1.161 H 9.944 C 8.316,-0.883 6.694,-2.268 5.076,-2.992 3.458,-3.717 1.438,-4.079 -0.983,-4.079 c -3.236,0 -5.772,0.834 -7.608,2.501 -1.836,1.668 -2.754,4.039 -2.754,7.116 0,6.591 5.271,10.044 15.811,10.362 l 5.538,0.179 v 2.025 c 0,2.56 -0.551,4.451 -1.652,5.671 -1.102,1.221 -2.864,1.832 -5.286,1.832 -2.719,0 -5.795,-0.834 -9.23,-2.502 l -1.519,3.783 c 1.609,0.873 3.37,1.557 5.286,2.053 1.916,0.496 3.835,0.746 5.761,0.746 3.891,0 6.774,-0.865 8.65,-2.591 1.876,-1.727 2.814,-4.496 2.814,-8.308 V -3.483 Z"
             style="fill:#323c49;fill-opacity:1;fill-rule:nonzero;stroke:none"
             id="path150"
             inkscape:connector-curvature="0" /></g><path
           d="m 876.344,327.85 h -4.943 v 46.33 h 4.943 z"
           style="fill:#323c49;fill-opacity:1;fill-rule:nonzero;stroke:none"
           id="path152"
           inkscape:connector-curvature="0" /><g
           id="g154"
           transform="translate(899.2696,356.9409)"><path
             d="m 0,0 c -2.62,0 -4.71,-0.854 -6.268,-2.562 -1.558,-1.707 -2.476,-4.069 -2.753,-7.085 h 17.06 c 0,3.116 -0.695,5.502 -2.084,7.161 C 4.565,-0.829 2.58,0 0,0 m 1.34,-29.687 c -4.823,0 -8.63,1.469 -11.419,4.408 -2.789,2.937 -4.184,7.016 -4.184,12.237 0,5.26 1.296,9.438 3.886,12.535 2.591,3.097 6.069,4.646 10.437,4.646 4.088,0 7.324,-1.346 9.707,-4.035 2.381,-2.69 3.572,-6.238 3.572,-10.645 v -3.126 h -22.48 c 0.099,-3.831 1.067,-6.739 2.903,-8.725 1.836,-1.985 4.422,-2.977 7.757,-2.977 3.513,0 6.987,0.734 10.42,2.203 v -4.406 C 10.192,-28.327 8.54,-28.867 6.982,-29.195 5.424,-29.522 3.543,-29.687 1.34,-29.687"
             style="fill:#323c49;fill-opacity:1;fill-rule:nonzero;stroke:none"
             id="path156"
             inkscape:connector-curvature="0" /></g></g></g></g></svg>